<?xml version="1.0" encoding="utf-8"?>
<!-- Generator: Adobe Illustrator 28.2.0, SVG Export Plug-In . SVG Version: 6.00 Build 0)  -->
<svg version="1.1" id="Capa_1" xmlns="http://www.w3.org/2000/svg" xmlns:xlink="http://www.w3.org/1999/xlink" x="0px" y="0px"
	 viewBox="0 0 1400 1257.8" style="enable-background:new 0 0 1400 1257.8;" xml:space="preserve">
<style type="text/css">
	.st0{fill-rule:evenodd;clip-rule:evenodd;fill:#0097A1;}
	.st1{fill-rule:evenodd;clip-rule:evenodd;fill:#3AA935;}
	.st2{fill-rule:evenodd;clip-rule:evenodd;fill:#FF9767;}
	.st3{fill-rule:evenodd;clip-rule:evenodd;fill:#FFEA00;}
</style>
<g id="Capa_2_00000172427631183256159410000007914858095241267109_">
</g>
<g id="Capa_3">
</g>
<g id="Page-1">
	<g id="Group-3">
		<polygon id="Fill-1" class="st0" points="0,1257.8 1400,1257.8 1400,0 0,0 		"/>
		<g id="Group-2" transform="translate(169.000000, 89.000000)">
			<polygon id="Fill-2" class="st1" points="677.8,916.9 637.9,838.9 426.1,838.9 386.2,916.9 66.5,916.9 462.1,143.9 601.9,143.9 
				997.5,916.9 			"/>
			<path id="Fill-3" class="st2" d="M626.6,102.9h-50.3h-89.6h-50.3l-22.9,44.7L59.7,838.3L-1.5,957.9h134.4h227.5h50.3l22.9-44.7
				l17-33.2h161.7l17,33.2l22.9,44.7h50.3h227.5h134.4l-61.2-119.6L649.5,147.6L626.6,102.9z M504,595.4H559l-27.5-53.6L504,595.4
				L504,595.4z M576.3,185l353.8,690.7H702.5l-39.9-78H400.4l-39.9,78H132.9L486.7,185H576.3z"/>
			<path id="Fill-4" class="st2" d="M430.7,640h202.7L532,442.2L430.7,640z M730.6,829.9L690.7,752H373.3l-39.9,77.9H207.5
				l307.4-600h34.2l307.4,600H730.6z"/>
			<path id="Fill-5" class="st3" d="M504.6,595.4l27.4-53.6l27.4,53.6H504.6z M576.8,184.9h-89.6l-353.7,691H361l39.9-78h262.2
				l39.9,78h227.5L576.8,184.9z M356.7,685.8h147.8h54.9h147.8l-67.4-131.6l-27.4-53.6L532,343.4l-80.5,157.2l-27.4,53.6
				L356.7,685.8L356.7,685.8z M532,295.8l250.7,489.7h-24.3l-14.7-28.8l-25.2-49.2h-55.3H400.9h-55.3l-25.2,49.2l-14.7,28.8h-24.3
				L532,295.8z"/>
		</g>
	</g>
</g>
</svg>
