<?xml version="1.0" encoding="utf-8"?>
<!-- Generator: Adobe Illustrator 28.2.0, SVG Export Plug-In . SVG Version: 6.00 Build 0)  -->
<svg version="1.1" id="Capa_1" xmlns="http://www.w3.org/2000/svg" xmlns:xlink="http://www.w3.org/1999/xlink" x="0px" y="0px"
	 viewBox="0 0 1400 1257.8" style="enable-background:new 0 0 1400 1257.8;" xml:space="preserve">
<style type="text/css">
	.st0{fill:#1E0047;}
	.st1{fill:#FFFFFF;}
	.st2{fill:#00FF81;}
</style>
<rect y="0" class="st0" width="1400" height="1257.8"/>
<g>
	<g>
		<path class="st1" d="M148.8,901.2V344.2h90.4c0,0,35.9-2.9,35.9,45.3v466.3c0,48.2-35.9,45.4-35.9,45.4L148.8,901.2z M203.9,860.7
			h4c6.5,0,12.1-5.4,12.1-11.9V397.9c0-6.5-5.5-11.8-12.1-11.8h-4V860.7z"/>
		<path class="st1" d="M291.8,901.2V344.4H347v556.8L291.8,901.2L291.8,901.2z"/>
		<path class="st1" d="M441.1,344.3h55.3v556.8h-46.4l-46.4-335.9l14.3,188.3v147.6h-55.2V344.3l0.2,0.7l-0.2-0.8H409L455.4,680
			l-14.2-188.1L441.1,344.3z"/>
		<path class="st1" d="M605.1,340.8c20.3,0,34.8,13.5,34.8,45.4v473.2c0,31.8-14.5,45.4-34.8,45.4H548c-20.3,0-34.8-13.5-34.8-45.4
			V386.1c0-31.8,14.5-45.4,34.8-45.4H605.1z M584.1,388.2c0-3.6-1.7-5.6-5.6-5.6h-3.8c-3.8,0-5.6,2-5.6,5.6v469
			c0,3.6,1.7,5.6,5.6,5.6h3.8c3.8,0,5.6-2,5.6-5.6V388.2z"/>
		<path class="st1" d="M816,340.8c20.3,0,32.9,13.5,28.4,45.4l-21.6,153.8H767l21.3-151.7c0.5-3.6-0.9-5.6-4.8-5.6h-3.8
			c-3.8,0-5.9,2-6.4,5.6l-20.2,143.7c-6.8,48.6,61.2,68.8,52.8,128.4l-28,199c-4.5,31.8-20.8,45.4-41.2,45.4h-57.1
			c-20.3,0-32.9-13.5-28.4-45.4l26.3-187.1h55.8l-26,185c-0.5,3.6,1,5.6,4.8,5.6h3.8c3.8,0,5.8-2,6.4-5.6l25.8-183.6
			c7.2-51.5-61.2-68.7-52.8-128.4l22.4-159.1c4.5-31.8,20.8-45.4,41.2-45.4L816,340.8L816,340.8z"/>
		<path class="st1" d="M898.5,344.3h50.6l-34.6,556.9h-56.6l12.3-121.7h-15.1l-21.9,121.7h-56.6L898.5,344.3z M862.7,737.4h11.8
			l12.9-126.8l0.4-9.2l-2.3,9.6L862.7,737.4z"/>
		<path class="st1" d="M1127.4,344.2L1055,859.3c-4.5,31.8-20.8,45.4-41.2,45.4h-57.1c-20.3,0-32.9-13.5-28.4-45.4l72.4-515.1h55.8
			l-72.1,513c-0.5,3.6,0.9,5.6,4.8,5.6h3.9c3.8,0,5.8-2,6.4-5.6l72.1-513C1071.5,344.2,1127.4,344.2,1127.4,344.2z"/>
		<path class="st1" d="M1243,344.3c0,0,36.7-2.9,29.9,45.3l-26.4,187.8c-3.6,25.4-15.3,36.7-25.5,41.6c8.8,5,17.4,16.3,13.8,41.7
			L1201,901.2h-55.8l35.8-254.8c0.5-3.3-1.7-6.2-4.9-6.2h-10l-36.7,261h-55.2l78.3-556.8h55.3v0L1243,344.3z M1201.7,386.1
			L1171.8,599h10c3.3,0,6.2-2.8,6.6-6l28.2-201c0.5-3.3-1.7-5.8-5-5.8L1201.7,386.1z"/>
	</g>
</g>
<g>
	<g>
		<path class="st2" d="M253.6,553.1h-9.8v65.2h9.8v10h-9.8v77.2h-11.5V543.2h21.3V553.1L253.6,553.1z"/>
		<path class="st2" d="M552.4,542.1c5.9,0,10.1,4,10.1,13.2v138c0,9.3-4.2,13.2-10.1,13.2h-7.6c-5.9,0-10.1-4-10.1-13.2v-138
			c0-9.3,4.2-13.2,10.1-13.2H552.4z M550.8,553.7c0-1.1-0.5-1.6-1.6-1.6H548c-1.1,0-1.6,0.6-1.6,1.6v141.4c0,1.1,0.5,1.6,1.6,1.6
			h1.2c1.1,0,1.6-0.6,1.6-1.6V553.7z"/>
		<path class="st2" d="M862.5,543.2H874v162.4h-9l-12-96.8l2.6,46.9v49.9h-11.5V543.2l0,0.1l0-0.1h9l12,96.8l-2.6-46.8V543.2z"/>
		<path class="st2" d="M1178,553.1h-8.1v152.5h-11.5V553.1h-8v-9.9h27.6L1178,553.1z"/>
	</g>
</g>
</svg>
