<?xml version="1.0" encoding="utf-8"?>
<!-- Generator: Adobe Illustrator 28.2.0, SVG Export Plug-In . SVG Version: 6.00 Build 0)  -->
<svg version="1.1" id="Capa_1" xmlns="http://www.w3.org/2000/svg" xmlns:xlink="http://www.w3.org/1999/xlink" x="0px" y="0px"
	 viewBox="0 0 1400 5593.5" style="enable-background:new 0 0 1400 5593.5;" xml:space="preserve">
<style type="text/css">
	.st0{fill:#1E0047;}
	.st1{fill:#FFFFFF;}
	.st2{fill:#FFFF00;}
	.st3{fill:#00FF81;}
</style>
<g id="Capa_2_00000108298460619331182970000000761974264101738908_">
	<rect y="1.1" class="st0" width="1400" height="5593.5"/>
</g>
<g>
	<g>
		<g>
			<path class="st1" d="M86,726.9V112.3h99.7c0,0,39.6-3.2,39.6,49.9v514.5c0,53.2-39.6,50.1-39.6,50.1L86,726.9z M146.8,682.2h4.4
				c7.2,0,13.3-6,13.3-13.2V171.5c0-7.2-6.1-13-13.3-13h-4.4V682.2z"/>
			<path class="st1" d="M243.8,726.9V112.4h61v614.5L243.8,726.9L243.8,726.9z"/>
			<path class="st1" d="M408.6,112.4h61v614.5h-51.2l-51.2-370.7L382.8,564v162.9h-61V112.4l0.2,0.7l-0.2-0.8h51.2l51.2,370.5
				l-15.7-207.5L408.6,112.4z"/>
			<path class="st1" d="M589.5,108.5c22.4,0,38.4,14.9,38.4,50.1v522.2c0,35.1-16,50-38.4,50h-63c-22.4,0-38.4-14.9-38.4-50V158.5
				c0-35.1,16-50.1,38.4-50.1H589.5z M566.3,160.8c0-4-1.9-6.1-6.2-6.1h-4.2c-4.2,0-6.2,2.2-6.2,6.1v517.5c0,4,1.9,6.2,6.2,6.2h4.2
				c4.2,0,6.2-2.2,6.2-6.2V160.8z"/>
			<path class="st1" d="M822.3,108.5c22.4,0,36.3,14.9,31.4,50.1l-23.8,169.7h-61.6l23.5-167.4c0.6-4-1-6.1-5.3-6.1h-4.2
				c-4.2,0-6.5,2.2-7,6.1l-22.3,158.6c-7.5,53.6,67.5,75.9,58.3,141.7l-30.9,219.5c-4.9,35.1-23,50-45.4,50h-63
				c-22.4,0-36.3-14.9-31.3-50l29-206.5h61.6l-28.7,204.2c-0.6,4,1,6.2,5.3,6.2h4.2c4.2,0,6.5-2.2,7-6.2l28.5-202.6
				c8-56.8-67.5-75.8-58.3-141.7l24.7-175.5c4.9-35.1,23-50.1,45.4-50.1L822.3,108.5L822.3,108.5z"/>
			<path class="st1" d="M913.3,112.4h55.9L931,726.9h-62.5l13.6-134.3h-16.6l-24.1,134.3h-62.5L913.3,112.4z M873.8,546.1h13
				l14.2-140l0.4-10.2l-2.5,10.6L873.8,546.1z"/>
			<path class="st1" d="M1165.8,112.3l-79.9,568.3c-4.9,35.1-23,50-45.4,50h-63c-22.4,0-36.3-14.9-31.3-50l79.9-568.3h61.6
				l-79.5,566c-0.6,4,1,6.2,5.3,6.2h4.2c4.2,0,6.5-2.2,7-6.2l79.5-566C1104.2,112.3,1165.8,112.3,1165.8,112.3z"/>
			<path class="st1" d="M1293.4,112.3c0,0,40.5-3.2,33,49.9l-29.1,207.2c-3.9,28.1-16.8,40.5-28.2,45.9c9.8,5.5,19.2,18,15.2,46
				l-37.3,265.4h-61.6l39.5-281.2c0.5-3.6-1.8-6.8-5.4-6.8h-11l-40.5,288h-61l86.3-614.5h61v-0.1L1293.4,112.3z M1247.9,158.5
				l-33,234.9h11c3.6,0,6.8-3,7.3-6.6l31.2-221.8c0.5-3.6-1.9-6.4-5.5-6.4L1247.9,158.5z"/>
		</g>
	</g>
	<g>
		<g>
			<path class="st2" d="M235.9,806.9c0,0,57.3-4.6,57.3,71.5v389.4c0,76.1-57.3,71.7-57.3,71.7h-13.1v347.3h-44.6V806.9h44.6v-0.1
				L235.9,806.9z M247.7,860.9c0-5.2-4-9.2-9.2-9.2h-15.8v445.2h15.8c5.1,0,9.2-4.4,9.2-9.5L247.7,860.9L247.7,860.9z"/>
			<path class="st2" d="M379.8,801.2c32.1,0,55,21.4,55,71.7v747.7c0,50.3-22.9,71.7-55,71.7h-5.5c-32.1,0-55-21.4-55-71.7V872.9
				c0-50.3,22.9-71.7,55-71.7L379.8,801.2L379.8,801.2z M389.3,854.8c0-5.7-2.7-8.8-8.8-8.8h-6.8c-6.1,0-8.8,3.1-8.8,8.8v783.8
				c0,5.7,2.7,8.8,8.8,8.8h6.8c6.1,0,8.8-3.1,8.8-8.8V854.8z"/>
			<path class="st2" d="M582,851.6h-43.6v835.1h-44.6V851.6h-43.3v-44.8h131.5L582,851.6z"/>
			<path class="st2" d="M650.7,1686.8l-6.5-241h-20.8l-11.6,241h-46.7l58.2-879.9h37.3l36.8,879.9H650.7z M625.6,1400.7H643
				l-4.7-175.9l-1.5-42.8l-2.7,43L625.6,1400.7z"/>
			<path class="st2" d="M823.6,851.6h-43.7v835.1h-44.6V851.6h-43.3v-44.8h131.5L823.6,851.6z"/>
			<path class="st2" d="M899.2,801.2c32.1,0,55,21.4,55,71.7v747.7c0,50.3-22.9,71.7-55,71.7h-5.5c-32.1,0-55-21.4-55-71.7V872.9
				c0-50.3,22.9-71.7,55-71.7L899.2,801.2L899.2,801.2z M908.7,854.8c0-5.7-2.7-8.8-8.8-8.8h-6.8c-6.1,0-8.8,3.1-8.8,8.8v783.8
				c0,5.7,2.7,8.8,8.8,8.8h6.8c6.1,0,8.8-3.1,8.8-8.8V854.8z"/>
			<path class="st2" d="M1084.1,1268.4h-45.3v373.3h45.3v45.1h-89.8V806.9h88.8V852h-44.2v371.3h45.3L1084.1,1268.4L1084.1,1268.4z"
				/>
			<path class="st2" d="M1221.7,1540.5v80.1c0,50.3-22.9,71.7-55,71.7h-5.5c-32.1,0-54.9-21.4-55-71.7l-0.4-295.6h45.5l0.4,313.7
				c0,5.7,2.7,8.8,8.8,8.8h6.8c6.1,0,8.8-3.1,8.8-8.8v-98.1l-0.6-223c0-81.4-69.9-108.5-69.9-202.9V873c0-50.3,22.9-71.7,55-71.7
				h5.5c32.1,0,55,21.4,55,71.7v242.6h-45.5V854.9c0-5.7-2.7-8.8-8.8-8.8h-6.8c-6.1,0-8.8,3.1-8.8,8.8v67.7l-0.8,192.2
				c0,76.8,70.8,108.9,70.8,203.1L1221.7,1540.5z"/>
		</g>
	</g>
	<g>
		<path class="st1" d="M247.6,1809.6h-35.4v236.6h35.4v36.4h-35.4v279.9h-41.8v-589h77.2V1809.6z"/>
		<path class="st1" d="M314.9,2362.5l-4.7-147.7h-14.7l-6.5,147.7h-43.3l42-589h36.9l33.7,589H314.9z M297,2178.7h12l-4-124.6
			l-1.1-17.6l-1.4,17.8L297,2178.7z"/>
		<path class="st1" d="M435.5,1773.5h41.8l0,589h-32.5l-43.5-350.9l9.5,169.9v181H369v-589l0.1,0.4l-0.1-0.5h32.5l43.5,350.9
			l-9.5-169.8L435.5,1773.5z"/>
		<path class="st1" d="M598.7,2258.4v59.9c0,33.6-15.3,48-36.8,48h-27.5c-21.5,0-36.8-14.3-36.8-48l-0.2-197.9H540l0.2,204
			c0,3.8,1.8,5.9,5.9,5.9h4.4c4.1,0,5.9-2.1,5.9-5.9v-65.9l-0.2-140.3c0-54.5-58.6-72.7-58.6-135.8v-164.5c0-33.7,15.3-48,36.8-48
			h27.4c21.5,0,36.8,14.3,36.8,48v162.5H556v-168.6c0-3.8-1.8-5.9-5.9-5.9h-4.4c-4.1,0-5.9,2.1-5.9,5.9v46.1l-0.3,118.7
			c0,51.4,58.9,72.8,58.9,135.9L598.7,2258.4z"/>
		<path class="st1" d="M709.6,1809.5h-29.2v553h-41.8v-553h-29v-36h100L709.6,1809.5z"/>
		<path class="st1" d="M766.6,2362.5l-4.7-147.7h-14.8l-6.5,147.7h-43.3l42-589h36.9l33.7,589H766.6z M748.8,2178.7h12l-4-124.6
			l-1.1-17.6l-1.4,17.8L748.8,2178.7z"/>
		<path class="st1" d="M916.9,2258.4v59.9c0,33.6-15.3,48-36.8,48h-27.5c-21.5,0-36.8-14.3-36.8-48l-0.2-197.9h42.5l0.2,204
			c0,3.8,1.8,5.9,5.9,5.9h4.4c4.1,0,5.9-2.1,5.9-5.9v-65.9l-0.2-140.3c0-54.5-58.6-72.7-58.6-135.8v-164.5c0-33.7,15.3-48,36.8-48
			h27.4c21.5,0,36.8,14.3,36.8,48v162.5h-42.5v-168.6c0-3.8-1.8-5.9-5.9-5.9h-4.4c-4.1,0-5.9,2.1-5.9,5.9v46.1l-0.3,118.7
			c0,51.4,58.9,72.8,58.9,135.9L916.9,2258.4z"/>
		<path class="st1" d="M1027.8,1809.5h-29.2v553h-41.8v-553h-29v-36h100L1027.8,1809.5z"/>
		<path class="st1" d="M1044.4,2362.5v-589h41.8v589H1044.4z"/>
		<path class="st1" d="M1214.1,2120.3v197.9c0,33.6-15.3,48-36.8,48h-27.4c-21.5,0-36.8-14.3-36.8-48v-500.5c0-33.7,15.3-48,36.8-48
			h27.4c21.5,0,36.8,14.3,36.8,48v162h-42.4v-168.1c0-3.8-1.8-5.9-5.9-5.9h-4.3c-4.1,0-5.9,2.1-5.9,5.9v512.7c0,3.8,1.8,5.9,5.9,5.9
			h4.3c4.1,0,5.9-2.1,5.9-5.9v-204H1214.1z"/>
	</g>
	<g>
		<path class="st2" d="M211.4,2446.8c0,0,30.8-2.5,30.8,38.4v209c0,40.9-30.8,38.5-30.8,38.5h-7.1v186.4h-23.9v-472.4h23.9v0
			L211.4,2446.8z M217.8,2475.8c0-2.8-2.2-5-4.9-5h-8.5v239h8.5c2.8,0,4.9-2.4,4.9-5.1V2475.8z"/>
		<path class="st2" d="M303.3,2694.5H279V2895h24.3v24.2h-48.2v-472.4h47.7v24.2H279v199.3h24.3V2694.5z"/>
		<path class="st2" d="M380.7,2644.4c0,21.6-8.6,31.1-16.7,35.3c8.1,4.2,16.7,13.8,16.7,35.4v204h-24.4v-221.9
			c0-2.8-2.2-5.3-4.9-5.3h-8.5v227.1H319v-472.4h23.9v0h7.1c0,0,30.8-2.5,30.8,38.4L380.7,2644.4L380.7,2644.4z M342.9,2470.8v197.8
			h8.5c2.8,0,4.9-2.3,4.9-5.1v-187.7c0-2.8-2.2-5-4.9-5L342.9,2470.8z"/>
		<path class="st2" d="M463,2470.8h-23.4v448.4h-23.9v-448.4h-23.2v-24.1H463L463,2470.8z"/>
		<path class="st2" d="M533.1,2446.7v436.9c0,27-12.3,38.5-29.5,38.5h-2.9c-17.2,0-29.5-11.5-29.5-38.5v-436.9h24.4v446.6
			c0,3.1,1.5,4.7,4.7,4.7h3.7c3.3,0,4.7-1.7,4.7-4.7v-446.6H533.1z"/>
		<path class="st2" d="M616.4,2644.4c0,21.6-8.6,31.1-16.7,35.3c8.1,4.2,16.7,13.8,16.7,35.4v204h-24.4v-221.9
			c0-2.8-2.2-5.3-4.9-5.3h-8.5v227.1h-23.9v-472.4h23.9v0h7.1c0,0,30.8-2.5,30.8,38.4L616.4,2644.4L616.4,2644.4z M578.5,2470.8
			v197.8h8.5c2.8,0,4.9-2.3,4.9-5.1v-187.7c0-2.8-2.2-5-4.9-5L578.5,2470.8z"/>
		<path class="st2" d="M697.9,2644.4c0,21.6-8.5,31.1-16.5,35.3c8,4.2,16.5,13.8,16.5,35.4v165.5c0,40.9-30.5,38.5-30.5,38.5h-7.1
			l0,0h-23.9v-472.4h23.9v0h7.1c0,0,30.5-2.5,30.5,38.4V2644.4L697.9,2644.4z M660.4,2470.7v197.8h8.5c2.8,0,5.2-2.3,5.2-5.1v-187.7
			c0-2.8-2.5-5-5.2-5L660.4,2470.7z M674.1,2697.2c0-2.8-2.5-5.2-5.2-5.2h-8.5v204.2h8.5c2.8,0,5.2-2.4,5.2-5.1V2697.2z"/>
		<path class="st2" d="M752.6,2919.1l-3.5-129.4H738l-6.2,129.4h-25.1l31.2-472.4h20l19.8,472.4H752.6z M739.1,2765.6h9.3l-2.5-94.4
			l-0.8-23l-1.5,23.1L739.1,2765.6z"/>
		<path class="st2" d="M851,2724.9v158.8c0,27-12.3,38.5-29.5,38.5h-2.9c-17.2,0-29.5-11.5-29.5-38.5v-401.4
			c0-27,12.3-38.5,29.5-38.5h2.9c17.2,0,29.5,11.5,29.5,38.5v129.8h-24.4v-139.5c0-3.1-1.5-4.7-4.7-4.7h-3.7c-3.3,0-4.7,1.7-4.7,4.7
			v420.8c0,3.1,1.5,4.7,4.7,4.7h3.7c3.3,0,4.7-1.7,4.7-4.7v-168.4L851,2724.9L851,2724.9z"/>
		<path class="st2" d="M870.2,2919.1v-472.4h23.9v472.4H870.2z"/>
		<path class="st2" d="M947.6,2443.7c17.2,0,29.5,11.5,29.5,38.5v401.4c0,27-12.3,38.5-29.5,38.5h-2.9c-17.2,0-29.5-11.5-29.5-38.5
			v-401.4c0-27,12.3-38.5,29.5-38.5H947.6z M952.7,2472.5c0-3.1-1.5-4.7-4.7-4.7h-3.7c-3.3,0-4.7,1.7-4.7,4.7v420.8
			c0,3.1,1.5,4.7,4.7,4.7h3.7c3.3,0,4.7-1.7,4.7-4.7V2472.5z"/>
		<path class="st2" d="M1042.3,2446.8h23.9l0,472.4h-16.4l-31.7-278.9l4.5,119.3v159.6h-23.9v-472.4l0,0.1l0-0.2h16.4l31.7,279
			l-4.4-119.3L1042.3,2446.8z"/>
		<path class="st2" d="M1134.5,2694.5h-24.3V2895h24.3v24.2h-48.2v-472.4h47.7v24.2h-23.7v199.3h24.3L1134.5,2694.5L1134.5,2694.5z"
			/>
		<path class="st2" d="M1208.3,2840.6v43c0,27-12.3,38.5-29.5,38.5h-2.9c-17.2,0-29.5-11.5-29.5-38.5l-0.2-158.7h24.4l0.2,168.4
			c0,3.1,1.5,4.7,4.7,4.7h3.7c3.3,0,4.7-1.7,4.7-4.7v-52.7l-0.3-119.7c0-43.7-37.6-58.3-37.6-108.9v-129.8c0-27,12.3-38.5,29.5-38.5
			h2.9c17.2,0,29.5,11.5,29.5,38.5v130.2h-24.4v-139.9c0-3.1-1.5-4.7-4.7-4.7h-3.7c-3.3,0-4.7,1.7-4.7,4.7v36.4l-0.4,103.2
			c0,41.2,38,58.4,38,109L1208.3,2840.6z"/>
	</g>
	<g>
		<path class="st2" d="M195.7,3065.5h-10.6v87.1h10.6v10.5h-21v-205.2h20.7v10.5h-10.3v86.6h10.6L195.7,3065.5L195.7,3065.5z"/>
		<path class="st2" d="M221.5,2957.8h10.4v205.2h-7.1L211,3041.9l1.9,51.8v69.4h-10.4v-205.2l0,0.1l0-0.1h7.1l13.8,121.2l-1.9-51.8
			V2957.8z"/>
		<path class="st2" d="M276.8,3152.6H292v10.5h-25.7v-10.5v-194.7h10.4V3152.6z"/>
		<path class="st2" d="M316.6,3163.1l-1.5-56.2h-4.9l-2.7,56.2h-10.9l13.6-205.2h8.7l8.6,205.2H316.6z M310.8,3096.3h4.1l-1.1-41
			l-0.4-10l-0.6,10L310.8,3096.3z"/>
		<path class="st2" d="M378.4,2968.3H368v86.6h10.3v10.5H368v97.6h-10.4v-205.2h20.7V2968.3z"/>
		<path class="st2" d="M412.6,2957.8v189.8c0,11.7-5.3,16.7-12.8,16.7h-1.3c-7.5,0-12.8-5-12.8-16.7v-189.8h10.6v194.1
			c0,1.3,0.6,2.1,2,2.1h1.6c1.4,0,2.1-0.7,2.1-2.1v-194.1H412.6z"/>
		<path class="st2" d="M442.9,3065.5h-10.6v87.1h10.6v10.5h-21v-205.2h20.7v10.5h-10.3v86.6h10.6V3065.5z"/>
		<path class="st2" d="M476.6,3043.7c0,9.4-3.7,13.5-7.2,15.3c3.5,1.8,7.2,6,7.2,15.4v88.6H466v-96.4c0-1.2-0.9-2.3-2.1-2.3h-3.7
			v98.7h-10.4v-205.2h10.4v0h3.1c0,0,13.4-1.1,13.4,16.7L476.6,3043.7L476.6,3043.7z M460.1,2968.2v85.9h3.7c1.2,0,2.1-1,2.1-2.2
			v-81.6c0-1.2-0.9-2.2-2.1-2.2L460.1,2968.2z"/>
		<path class="st2" d="M480.9,3152.3l23.7-183.9h-18.1v-10.5l28.2,0v13.5l-23.1,181H513v10.7h-32.1V3152.3z"/>
		<path class="st2" d="M535.2,3163.1l-1.5-56.2h-4.8l-2.7,56.2h-10.9l13.6-205.2h8.7l8.6,205.2H535.2z M529.4,3096.3h4.1l-1.1-41
			l-0.4-10l-0.6,10L529.4,3096.3z"/>
		<path class="st2" d="M610.2,3164.9v9.9h-12.2c-2,0-4.5-1.9-4.5-5.1v-5.3h-3.8c-7.5,0-12.8-5-12.8-16.7v-174.4
			c0-11.7,5.3-16.7,12.8-16.7h1.3c7.5,0,12.8,5,12.8,16.7v190.1c0,1.3,0.2,1.5,1.5,1.5L610.2,3164.9L610.2,3164.9z M587.4,3122.7
			c0.8-0.1,1.7-0.2,2.5-0.2h0.7c0.9,0,1.7,0.1,2.5,0.2V2969c0-1.3-0.6-2.1-2.1-2.1h-1.6c-1.4,0-2.1,0.7-2.1,2.1L587.4,3122.7
			L587.4,3122.7z M593.1,3135c0-1.3-0.6-2.1-2.1-2.1h-1.6c-1.4,0-2,0.7-2,2.1v16.8c0,1.3,0.6,2.1,2,2.1h1.6c1.4,0,2.1-0.7,2.1-2.1
			V3135z"/>
		<path class="st2" d="M637.9,2957.8v189.8c0,11.7-5.3,16.7-12.8,16.7h-1.3c-7.5,0-12.8-5-12.8-16.7v-189.8h10.6v194.1
			c0,1.3,0.6,2.1,2.1,2.1h1.6c1.4,0,2.1-0.7,2.1-2.1v-194.1H637.9z"/>
		<path class="st2" d="M668.2,3065.5h-10.6v87.1h10.6v10.5h-21v-205.2H668v10.5h-10.3v86.6h10.6V3065.5z"/>
		<path class="st2" d="M719.8,2957.8h10.4v205.2H723l-13.8-121.2l1.9,51.8v69.4h-10.4v-205.2l0,0.1l0-0.1h7.1l13.8,121.2l-1.9-51.8
			V2957.8z"/>
		<path class="st2" d="M753.5,2956.5c7.5,0,12.8,5,12.8,16.7v174.4c0,11.7-5.3,16.7-12.8,16.7h-1.3c-7.5,0-12.8-5-12.8-16.7v-174.4
			c0-11.7,5.3-16.7,12.8-16.7H753.5z M755.7,2969c0-1.3-0.6-2.1-2.1-2.1H752c-1.4,0-2,0.7-2,2.1v182.8c0,1.3,0.6,2.1,2,2.1h1.6
			c1.4,0,2.1-0.7,2.1-2.1V2969z"/>
		<path class="st2" d="M828.9,2968.3h-10.2v194.8h-10.4v-194.8h-10.1v-10.4h30.7L828.9,2968.3z"/>
		<path class="st2" d="M855.5,3065.5h-10.6v87.1h10.6v10.5h-21v-205.2h20.7v10.5h-10.3v86.6h10.6V3065.5z"/>
		<path class="st2" d="M888,3163.1v-205.2h10.4v205.2H888z"/>
		<path class="st2" d="M946.3,3163.1h-10.4v-28.5l1-68.1l-5.2,96.6h-10.2l-5.2-96.6l1,68.1v28.5h-10.4v-205.2l7.7,0l0,0h1.1
			l10.8,157.9l10.8-157.9l8.8,0L946.3,3163.1z"/>
		<path class="st2" d="M970.7,3163.1l-1.5-56.2h-4.8l-2.7,56.2h-10.9l13.6-205.2h8.7l8.6,205.2H970.7z M964.9,3096.3h4.1l-1.1-41
			l-0.4-10l-0.6,10L964.9,3096.3z"/>
		<path class="st2" d="M1013.5,3025.7h-10.6V2969c0-1.3-0.6-2.1-2.1-2.1h-1.6c-1.4,0-2.1,0.7-2.1,2.1v182.8c0,1.3,0.6,2.1,2.1,2.1
			h1.6c1.4,0,2.1-0.7,2.1-2.1v-62.4h-2.6v-10.7h13.2v68.9c0,11.7-5.3,16.7-12.8,16.7h-1.3c-7.5,0-12.8-5-12.8-16.7v-174.4
			c0-11.7,5.3-16.7,12.8-16.7h1.3c7.5,0,12.8,5,12.8,16.7V3025.7z"/>
		<path class="st2" d="M1021.8,3163.1v-205.2h10.4v205.2H1021.8z"/>
		<path class="st2" d="M1059.8,2957.8h10.4v205.2h-7.1l-13.8-121.2l1.9,51.8v69.4h-10.4v-205.2l0,0.1l0-0.1h7.1l13.8,121.2
			l-1.9-51.8V2957.8z"/>
		<path class="st2" d="M1094.4,3163.1l-1.5-56.2h-4.8l-2.7,56.2h-10.9l13.6-205.2h8.7l8.6,205.2H1094.4z M1088.6,3096.3h4.1l-1.1-41
			l-0.4-10l-0.6,10L1088.6,3096.3z"/>
		<path class="st2" d="M1137,3043.7c0,9.4-3.7,13.5-7.2,15.3c3.5,1.8,7.2,6,7.2,15.4v71.9c0,17.8-13.2,16.7-13.2,16.7h-3.1v0h-10.4
			v-205.2h10.4v0h3.1c0,0,13.2-1.1,13.2,16.7V3043.7L1137,3043.7z M1120.7,2968.2v85.9h3.7c1.2,0,2.3-1,2.3-2.2v-81.6
			c0-1.2-1.1-2.2-2.3-2.2H1120.7z M1126.7,3066.6c0-1.2-1.1-2.3-2.3-2.3h-3.7v88.8h3.7c1.2,0,2.3-1,2.3-2.2V3066.6z"/>
		<path class="st2" d="M1160.8,3163.1l-1.5-56.2h-4.8l-2.7,56.2h-10.9l13.6-205.2h8.7l8.6,205.2H1160.8z M1155,3096.3h4.1l-1.1-41
			l-0.4-10l-0.6,10L1155,3096.3z"/>
		<path class="st2" d="M1201.4,3128.9v18.7c0,11.7-5.3,16.7-12.8,16.7h-1.3c-7.5,0-12.8-5-12.8-16.7l-0.1-68.9h10.6l0.1,73.2
			c0,1.3,0.6,2.1,2.1,2.1h1.6c1.4,0,2.1-0.7,2.1-2.1v-22.9l-0.2-52c0-19-16.3-25.3-16.3-47.3v-56.4c0-11.7,5.3-16.7,12.8-16.7h1.3
			c7.5,0,12.8,5,12.8,16.7v56.6h-10.6V2969c0-1.3-0.6-2.1-2.1-2.1h-1.6c-1.4,0-2.1,0.7-2.1,2.1v15.8l-0.2,44.8
			c0,17.9,16.5,25.4,16.5,47.4L1201.4,3128.9z"/>
	</g>
	<path class="st3" d="M356.2,3242.8h52l-196.4,953.9h-47l48.2-596.9l0.6-9l-1.9,8.9l-119.6,597H45l71.8-953.9h51.9l-58.9,660.3
		l126.7-660.4h52l-58.9,660.4L356.2,3242.8z"/>
	<path class="st3" d="M531.2,3236.8c34.8,0,56.3,23.2,48.7,77.7L465.9,4125c-7.7,54.5-35.7,77.7-70.5,77.7h-5.9
		c-34.8,0-56.3-23.2-48.7-77.7l113.9-810.5c7.7-54.5,35.7-77.7,70.5-77.7L531.2,3236.8L531.2,3236.8z M533.3,3294.9
		c0.8-6.2-1.6-9.6-8.2-9.6h-7.4c-6.6,0-10,3.4-10.9,9.6l-119.4,849.6c-0.9,6.2,1.6,9.5,8.2,9.5h7.4c6.6,0,10-3.4,10.9-9.5
		L533.3,3294.9z"/>
	<path class="st3" d="M758.1,3242.9h48.3l-134,953.8v0h-33.2l15.1-563.1l-24.9,240.9l-45.3,322.3h-48.3l134-953.8v0.3l0-0.4h33.2
		L687.9,3806l24.9-240.8L758.1,3242.9z"/>
	<path class="st3" d="M754.7,4196.7l134-953.9H951c0,0,62.2-5,50.6,77.5l-112.2,798.6c-11.6,82.5-72.4,77.8-72.4,77.8L754.7,4196.7z
		 M809.3,4150.5h6.8c11.2,0,22-9.3,23.5-20.4l115-818.6c1.5-11.2-6.7-20.1-17.8-20.1H930L809.3,4150.5z"/>
	<path class="st3" d="M1167.9,3291.9H1120l-56.6,402.4h47.9l-6.9,48.9h-47.9l-56.9,404.7h47.9l-6.8,48.9h-96.2l70.6-502.4
		l56.6-402.4l6.8-48.9h96.2L1167.9,3291.9z"/>
	<path class="st3" d="M1302.4,3242.8c0,0,62.8-5,51.2,77.5l-45.2,321.7c-6.1,43.6-26.2,62.8-43.7,71.2c15.2,8.6,29.8,27.9,23.7,71.4
		l-57.9,412h-49.3l62.9-448c0.8-5.6-2.9-10.6-8.4-10.6h-17.1l-64.5,458.5h-48.3l134-953.7h48.3v-0.1L1302.4,3242.8z M1306.9,3301.4
		c0.8-5.6-2.9-10-8.5-10h-17.1l-56.1,399.3h17.1c5.6,0,10.6-4.7,11.4-10.3L1306.9,3301.4z"/>
	<g>
		<g>
			<path class="st3" d="M201.7,342.8h-10.8v72h10.8v11.1h-10.8v85.2h-12.7V331.8h23.5L201.7,342.8L201.7,342.8z"/>
			<path class="st3" d="M531.3,330.7c6.5,0,11.2,4.4,11.2,14.6v152.3c0,10.2-4.7,14.6-11.2,14.6H523c-6.5,0-11.2-4.4-11.2-14.6
				V345.3c0-10.2,4.7-14.6,11.2-14.6H531.3z M529.6,343.4c0-1.2-0.6-1.8-1.8-1.8h-1.3c-1.2,0-1.8,0.6-1.8,1.8v156
				c0,1.2,0.6,1.8,1.8,1.8h1.3c1.2,0,1.8-0.6,1.8-1.8V343.4z"/>
			<path class="st3" d="M873.5,331.8h12.7v179.2h-9.9l-13.2-106.8L866,456v55.1h-12.7V331.8l0,0.1l0-0.1h9.9l13.2,106.8l-2.9-51.7
				V331.8z"/>
			<path class="st3" d="M1221.7,342.8h-8.9v168.3h-12.7V342.8h-8.8v-11h30.4L1221.7,342.8z"/>
		</g>
	</g>
	<g>
		<path class="st2" d="M330.7,4272.1c18.8,0,31.8,12.1,31.8,41.7v559.8h-41v-553.1c0-6.8-4-10.1-9-10.1c-8.1,0-13.9,8.1-13.9,8.1
			v355.8h0v199.3h-41v-553.1c0-6.8-4-10.1-8.9-10.1c-8.1,0-13.9,8.1-13.9,8.1v555h-41v-199.3v-227.3v-170h41v10.7
			c9-9.8,19.6-15.7,32.5-15.7c13.2,0,23.5,5.9,28.5,19.6c9.6-12.2,21.3-19.6,35.4-19.6H330.7z"/>
		<path class="st2" d="M440.1,4277.1v596.6h-41v-596.6H440.1z M402.1,4220.4v-105.5h29.8v105.5H402.1z"/>
		<path class="st2" d="M579.7,4666.5V4814c0,45.3-20.6,64.6-49.6,64.6h-4.9c-29,0-49.6-19.3-49.6-64.6v-477.2
			c0-45.3,20.6-64.6,49.6-64.6h4.9c29,0,49.6,19.3,49.6,64.6v139.7h-41v-156c0-5.2-2.5-7.9-7.9-7.9h-6.1c-5.5,0-7.9,2.8-7.9,7.9
			v509.8c0,5.2,2.5,7.9,7.9,7.9h6.1c5.5,0,7.9-2.8,7.9-7.9v-163.8L579.7,4666.5z"/>
		<path class="st2" d="M684.5,4272.1c17.7,0,31.2,14.2,31.2,38.5v206.7h-40v-196.7c0-6.8-4-10.1-9-10.1c-8.1,0-13.9,8.1-13.9,8.1
			v555h-41v-355.8v-115.3v-125.4h16.8l6.6,26.9C647.2,4284.4,663.8,4272.1,684.5,4272.1L684.5,4272.1z"/>
		<path class="st2" d="M794.6,4272.2c29,0,49.6,19.3,49.6,64.6V4814c0,45.3-20.6,64.6-49.6,64.6h-4.9c-29,0-49.6-19.3-49.6-64.6
			v-477.2c0-45.3,20.6-64.6,49.6-64.6L794.6,4272.2L794.6,4272.2z M803.1,4320.5c0-5.2-2.5-7.9-7.9-7.9H789c-5.5,0-7.9,2.8-7.9,7.9
			v509.8c0,5.2,2.5,7.9,7.9,7.9h6.2c5.5,0,7.9-2.8,7.9-7.9V4320.5z"/>
		<path class="st2" d="M952.5,4272.1c18.8,0,31.8,12.1,31.8,41.7v526.3c0,24.3-14.5,38.5-32.2,38.5c-20.4,0-36.7-12.1-48.6-31.2
			l-6.5,26.3h-16.8v-125.4c0-81.8,0-192.6,0-301.1v-366.9h41V4287C930,4277.7,940.4,4272.1,952.5,4272.1L952.5,4272.1z
			 M943.3,4320.6c0-6.8-4-10.1-9-10.1c-8.1,0-13.1,8.1-13.1,8.1v513.5c0,0,5,8.1,13.1,8.1c5,0,9-3.3,9-10.1V4320.6z"/>
		<path class="st2" d="M1061.5,4277.1v596.6h-41v-596.6H1061.5z M1023.6,4220.4v-105.5h29.8v105.5H1023.6z"/>
		<path class="st2" d="M1151.5,4272.2c29,0,49.6,19.3,49.6,64.6V4814c0,45.3-20.6,64.6-49.6,64.6h-4.9c-28.9,0-49.6-19.3-49.6-64.6
			v-477.2c0-45.3,20.6-64.6,49.6-64.6L1151.5,4272.2L1151.5,4272.2z M1160.1,4320.5c0-5.2-2.5-7.9-7.9-7.9h-6.2
			c-5.5,0-7.9,2.8-7.9,7.9v509.8c0,5.2,2.5,7.9,7.9,7.9h6.2c5.5,0,7.9-2.8,7.9-7.9V4320.5z"/>
	</g>
	<g>
		<path class="st1" d="M257.5,4939.5c21.4,0,34.6,14.2,29.9,47.7l-8.1,57.7l-22,156.9l-0.5,3.7l-7.5,53.6l-4.5,31.7l0,0.1
			c-6.5,46.6-11.5,82.1-13,92.4h-12.4l-2.1-19.9c-11,14.4-24.5,23.5-39.7,23.5c-13.1,0-21.6-10.5-19.1-28.4l14-99.5l7.7-54.6
			l2.3-16.5c4.5-31.9,25.4-42.5,51.7-42.5h0.8l14-99.6l9.9-70.6c0.5-3.8-1-5.9-5-5.9h-4.5c-4,0-6.1,2-6.7,5.9l-20.3,144.7H192
			l18.6-132.7c4.7-33.4,21.9-47.7,43.3-47.7L257.5,4939.5z M211.7,5310.7l19.2-136.9l-7.9,0.4c-4.7,0.2-9.1,4.6-10.1,11.7l-0.7,5.4
			l-9.5,67.8l-12.9,92.1c-0.7,5,1.9,7.4,5.6,7.4c6,0,10.5-6,10.5-6L211.7,5310.7z"/>
		<path class="st1" d="M370.5,4797.8l-82.3,585.5H258l82.3-585.5L370.5,4797.8L370.5,4797.8z"/>
		<path class="st1" d="M432.4,4939.4c13.9,0,22.2,8.9,19.1,30.8L397,5358.5c-2.5,18-14.7,28.4-27.8,28.4c-15.1,0-25.8-8.9-32.6-23.1
			l-7.5,19.4h-12.4l13-92.1c0-0.1,0-0.3,0-0.4l31.2-222.2l0-0.2c16.9-120.1,33.2-236.4,38-270.5h30.3l-21.5,152.6
			C415.2,4943.5,423.4,4939.4,432.4,4939.4L432.4,4939.4z M420.6,4975.2c0.7-5-1.9-7.4-5.6-7.4c-5.9,0-10.5,5.9-10.5,6l-53.2,378.9
			c0,0,2.9,6,8.8,6c3.7,0,7-2.4,7.6-7.4L420.6,4975.2z"/>
		<path class="st1" d="M519.4,4939.5c21.4,0,34.6,14.2,29.9,47.7l-8.1,57.7l-22,156.9l-0.5,3.7l-7.5,53.6l-4.5,31.7l0,0.1
			c-6.5,46.6-11.5,82.1-13,92.4h-12.4l-2.1-19.9c-11,14.4-24.5,23.5-39.7,23.5c-13.1,0-21.6-10.5-19.1-28.4l14-99.5l7.7-54.6
			l2.3-16.5c4.5-31.9,25.5-42.5,51.7-42.5h0.8l14-99.6l9.9-70.6c0.5-3.8-1-5.9-5-5.9h-4.5c-4,0-6.1,2-6.7,5.9l-20.3,144.7h-30.2
			l18.6-132.7c4.7-33.4,21.9-47.7,43.3-47.7L519.4,4939.5z M473.6,5310.7l19.2-136.9l-7.9,0.4c-4.7,0.2-9.1,4.6-10.1,11.7l-0.7,5.4
			l-9.5,67.8l-12.9,92.1c-0.7,5,1.9,7.4,5.5,7.4c6,0,10.5-6,10.5-6L473.6,5310.7z"/>
		<path class="st1" d="M635.9,4939.4c13.1,0,21.6,10.5,19.1,28.4l-21.4,152.5H604l20.4-145.1c0.7-5-1.9-7.4-5.5-7.4
			c-6,0-11.1,6-11.1,6l-5.9,42l-16.8,119.2l-34.9,248.4h-30.3l36.9-262.6l12-85.1v0c6.9-49.3,12-85.3,13-92.5h12.4l2.1,19.8
			C607.2,4948.5,620.7,4939.4,635.9,4939.4L635.9,4939.4z"/>
		<path class="st1" d="M716.2,4943.1l-61.9,440.2h-30.3l61.9-440.2H716.2z M694.1,4901.2l10.9-77.8h22l-10.9,77.8H694.1z"/>
		<path class="st1" d="M779.4,5230.5l-15.3,108.8c-4.7,33.5-21.9,47.7-43.3,47.7h-3.6c-21.4,0-34.6-14.2-29.9-47.7l49.5-352.1
			c4.7-33.4,21.9-47.7,43.3-47.7h3.6c21.4,0,34.6,14.2,29.9,47.7l-14.5,103.1h-30.3l16.2-115.1c0.5-3.8-1-5.9-5-5.9h-4.5
			c-4,0-6.2,2-6.7,5.9L716,5351.3c-0.5,3.8,1,5.9,5,5.9h4.5c4,0,6.2-2,6.7-5.9l17-120.8L779.4,5230.5z"/>
		<path class="st1" d="M887.9,4939.5c21.4,0,34.6,14.2,29.9,47.7l-49.5,352.1c-4.7,33.5-21.9,47.7-43.3,47.7h-3.7
			c-21.4,0-34.6-14.2-29.9-47.7l49.5-352.1c4.7-33.4,21.9-47.7,43.3-47.7H887.9z M889.2,4975.1c0.5-3.8-1-5.9-5-5.9h-4.5
			c-4,0-6.2,2-6.7,5.9l-52.9,376.1c-0.5,3.8,1,5.9,5,5.9h4.5c4,0,6.2-2,6.7-5.9L889.2,4975.1z"/>
		<path class="st1" d="M1011.4,5035.6L985,5223.8l-42.8,304.8h-30.3l21.5-152.6c-7.4,6.9-15.6,11-24.6,11
			c-13.9,0-22.2-8.9-19.1-30.8l54.6-388.3c2.5-18,14.7-28.4,27.8-28.4c15.1,0,25.8,8.9,32.6,23.1l7.5-19.4h12.4l-13,92.4
			L1011.4,5035.6z M920.5,5351.2c-0.7,5,1.9,7.4,5.5,7.4c6,0,10.5-6,10.5-6l53.2-378.9c0,0-2.8-6-8.8-6c-3.7,0-6.9,2.4-7.7,7.4
			L920.5,5351.2z"/>
		<path class="st1" d="M1094,4943.1h30.3l-61.9,440.2h-30.3l1.1-7.9c-7.6,7.3-16.1,11.6-25.3,11.6c-13.9,0-22.2-8.9-19.1-30.8
			l58.1-413.1h30.2l-57.3,408.1c-0.7,5,1.9,7.4,5.6,7.4c6,0,11.1-6,11.1-6l36.9-262.5L1094,4943.1z"/>
		<path class="st1" d="M1192.3,4939.5c21.4,0,34.6,14.2,29.9,47.7l-27.9,198.7h-18.1l0,0.1h-28.5l-23.2,165.4c-0.5,3.8,1,5.9,5,5.9
			h4.5c4,0,6.2-2,6.7-5.9l12.5-88.7h30.3l-10.8,76.7c-4.7,33.5-21.9,47.7-43.3,47.7h-3.7c-21.4,0-34.6-14.2-29.9-47.7l49.5-352.1
			c4.7-33.4,21.9-47.7,43.3-47.7H1192.3z M1193.6,4975.1c0.5-3.8-1-5.9-5-5.9h-4.5c-4,0-6.2,2-6.7,5.9l-25.3,180.2h16.3
			L1193.6,4975.1z"/>
	</g>
</g>
</svg>
