<?xml version="1.0" encoding="utf-8"?>
<!-- Generator: Adobe Illustrator 28.2.0, SVG Export Plug-In . SVG Version: 6.00 Build 0)  -->
<svg version="1.1" id="Capa_1" xmlns="http://www.w3.org/2000/svg" xmlns:xlink="http://www.w3.org/1999/xlink" x="0px" y="0px"
	 viewBox="0 0 1400 1257.8" style="enable-background:new 0 0 1400 1257.8;" xml:space="preserve">
<style type="text/css">
	.st0{fill:#E3E3E2;}
	.st1{fill:#CFA616;}
</style>
<rect y="0" width="1400" height="1257.8"/>
<path class="st0" d="M312.7,417.6c9.8,0,18.6,3.9,24.9,10.2l38.6,38.6c7.4,7.4,10.9,16.5,10.5,26c-0.3,8.4-3.9,17.2-10.5,23.9
	c-14.4,14.4-36.5,13.3-49.9,0l-28.1-28.1h-35.8l-32.7,32.3v143.3l32.7,32.7h35.5l32.7-32.7v-38.6h-4.9c-19.3,0-35.1-15.8-35.1-35.1
	c0-19.3,15.8-35.5,35.1-35.5h40.7c20.7,0,35.1,16.5,35.1,35.5v86.8c0.3,9.8-2.8,19.3-10.2,26.7L338,756.9c-7,7-15.8,10.2-24.9,10.2
	h-65c-9.1,0-18.6-3.9-24.9-10.2l-53.4-53.4c-6.3-6.3-10.2-15.8-10.2-24.9V506.1c0-9.8,3.9-18.6,10.2-24.9l53.4-53.4
	c6.3-6.3,15.8-10.2,24.9-10.2L312.7,417.6L312.7,417.6z"/>
<path class="st0" d="M591.6,417.6c9.8,0,18.6,3.5,24.9,10.2l53.4,53.4c6.3,6.3,10.2,15.1,10.2,24.9v172.5c0,9.1-3.9,18.6-10.2,24.9
	l-53.4,53.4c-6.3,6.3-15.1,10.2-24.9,10.2h-65c-9.1,0-18.6-3.9-24.9-10.2l-53.4-53.4c-6.3-6.3-10.2-15.8-10.2-24.9V506.1
	c0-9.8,3.9-18.6,10.2-24.9l53.4-53.4c6.3-6.3,15.8-10.2,24.9-10.2L591.6,417.6L591.6,417.6z M508.7,520.1v143.3l32.7,32.7h35.8
	l32.3-32.7V520.1l-32.3-32.3h-35.8L508.7,520.1z"/>
<path class="st0" d="M888.4,579.5L868,613.6c-6.3,10.5-17.9,17.2-30.6,17.2c-11.9,0-23.5-6.3-29.9-17.2l-20.4-33.7v152.1
	c0,19.3-15.8,35.1-35.5,35.1c-19.3,0-35.1-15.8-35.1-35.1V452.4c0-19,15.8-35.1,35.5-35.1c11.9,0,23.5,6,29.9,17.2l55.5,92.4
	l55.8-92.4c6.3-11.2,17.9-17.2,29.9-17.2c19.7,0,35.5,16.2,35.5,35.1v279.6c0,19.3-15.8,35.1-35.1,35.1S888,751.3,888,731.9V579.5
	H888.4z"/>
<path class="st0" d="M1227.2,480.8c6.3,6.3,10.2,15.1,10.2,24.9v226.2c0,19.3-15.8,35.1-35.1,35.1c-19.3,0-35.5-15.8-35.5-35.1
	v-57.6h-101.2v57.6c0,19.3-15.8,35.1-35.5,35.1c-19.3,0-35.1-15.8-35.1-35.1V505.8c0-9.8,3.9-18.6,10.2-24.9l53.4-53.4
	c6.3-6.3,15.8-10.2,24.9-10.2h65c9.1,0,18.6,3.5,24.9,10.2L1227.2,480.8z M1166.8,520.1l-32.3-32.3h-35.8l-32.7,32.3v83.6h101.2
	v-83.6H1166.8z"/>
<path class="st1" d="M302.6,756.9L286,789c-1.1,1.6-3,2.7-4.9,2.7c-1.9,0-3.8-1.1-4.9-2.7l-16.4-32.2v77.7c0,3.3-2.7,5.7-5.7,5.7
	c-3.3,0-5.7-2.5-5.7-5.7v-99c0-3,2.5-5.5,5.5-5.7c1.9,0,4.1,0.8,5.2,2.7l22.1,42l22.4-42c1.1-1.9,3.3-3,5.2-2.7c3,0,5.5,2.7,5.5,5.7
	v99c0,3.3-2.5,5.7-5.7,5.7c-3.3,0-5.7-2.5-5.7-5.7L302.6,756.9L302.6,756.9z"/>
<path class="st1" d="M570.7,730.1c1.4,0,3,0.5,4.1,1.6l16.1,15.8c1.1,1.1,1.6,2.5,1.6,4.1V819c0,1.6-0.5,3-1.6,4.1l-16.1,15.8
	c-1.1,1.1-2.5,1.6-4.1,1.6h-22.1c-1.4,0-3-0.5-4.1-1.6l-16.1-15.8c-1.1-1.1-1.6-2.5-1.6-4.1v-67.4c0-1.6,0.5-3,1.6-4.1l16.1-15.8
	c1.1-1.1,2.7-1.6,4.1-1.6L570.7,730.1L570.7,730.1z M538.2,753.9v63l12.8,12.3h17.5l12.5-12.3v-63l-12.5-12.3H551L538.2,753.9z"/>
<path class="st1" d="M816.7,756.3v78.3c0,3.3-2.7,5.7-5.7,5.7c-3.3,0-5.7-2.5-5.7-5.7v-99.3c0-3,2.5-5.5,5.5-5.5
	c1.9,0,4.1,0.8,5.2,2.7l43.6,81.3v-78.3c0-3.3,2.5-5.7,5.7-5.7c3.3,0,5.7,2.5,5.7,5.7v99c0,2.5-1.6,4.9-4.4,5.5
	c-1.9,0.5-4.9,0-6.3-2.7L816.7,756.3z"/>
<path class="st1" d="M1127.6,730.1c1.4,0,3,0.5,4.1,1.6l16.1,15.8c1.1,1.1,1.6,2.5,1.6,4.1V819c0,1.6-0.5,3-1.6,4.1l-16.1,15.8
	c-1.1,1.1-2.5,1.6-4.1,1.6h-22.1c-1.4,0-3-0.5-4.1-1.6l-16.1-15.8c-1.1-1.1-1.6-2.5-1.6-4.1v-67.4c0-1.6,0.5-3,1.6-4.1l16.1-15.8
	c1.1-1.1,2.7-1.6,4.1-1.6L1127.6,730.1L1127.6,730.1z M1095.1,753.9v63l12.8,12.3h17.5l12.5-12.3v-63l-12.5-12.3h-17.5L1095.1,753.9
	z"/>
</svg>
