<?xml version="1.0" encoding="utf-8"?>
<!-- Generator: Adobe Illustrator 28.2.0, SVG Export Plug-In . SVG Version: 6.00 Build 0)  -->
<svg version="1.1" id="Capa_1" xmlns="http://www.w3.org/2000/svg" xmlns:xlink="http://www.w3.org/1999/xlink" x="0px" y="0px"
	 viewBox="0 0 1400 1257.8" style="enable-background:new 0 0 1400 1257.8;" xml:space="preserve">
<style type="text/css">
	.st0{fill:#DB0074;}
	.st1{fill:#FFFFFF;}
	.st2{fill:#6CFFBE;}
</style>
<g id="Capa_2_00000172427631183256159410000007914858095241267109_">
</g>
<rect y="0" class="st0" width="1400" height="1257.8"/>
<g id="Capa_3">
</g>
<g>
	<g>
		<path class="st1" d="M266.8,426.3c-1.8,0-2.5-1.1-2-2.9L302.6,307c0.5-1.3,1.4-2,2.9-2h40.2c1.4,0,2.4,0.6,2.9,2l37.8,116.5
			c0.6,1.7-0.2,2.9-2,2.9h-31.2c-1.4,0-2.5-0.6-2.9-2l-4.5-17.7c-0.6-2.4,0-5,0-6.3c-1.3,0.5-4.1,1.6-7,1.6h-26.5
			c-2.9,0-5.7-1.2-7-1.6c0,1.3,0.6,3.8,0,6.3l-4.5,17.7c-0.3,1.3-1.4,2-2.9,2h-31.1V426.3z M311,376.8c1.4-0.4,4.7-1.6,7.8-1.6h13.5
			c3,0,6.3,1.2,7.8,1.6c-0.9-1.1-2.9-3.7-3.7-6.4l-8.2-26.8c-0.9-2.9-0.2-7.3,0.9-9c-0.5,0.5-2.1,1.7-2.6,1.7h-1.7
			c-0.5,0-2.1-1.3-2.6-1.7c1.2,1.7,1.7,6.2,0.9,9l-8.2,26.8C313.9,373.1,311.8,375.7,311,376.8L311,376.8z"/>
		<path class="st1" d="M473.4,427.3c-19.2,0-36.2-16.2-36.2-36.7v-50c0-20.4,16.9-37.1,36.2-37.1h23.4c19.2,0,36,17,36,35.1v3.4
			c0,1.6-0.9,2.5-2.5,2.5h-29.5c-1.6,0-2.5-1.2-2.6-2.8l-0.1-0.7c-0.4-4.8-3.3-7-9.2-7h-7.4c-6.1,0-9.6,1.7-9.6,10.1v43.1
			c0,8.3,3.4,9.9,9.5,9.9h7.4c6.1,0,9.4-1.7,9.4-9.9V385c0-1.9,2.4-5.2,2.4-5.2s-3.5,2.7-6.6,2.7h-3.5c-1.6,0-2.5-0.9-2.5-2.5
			l0.1-18.8c0-1.6,0.9-2.5,2.5-2.5h39.9c1.6,0,2.5,0.9,2.5,2.5v29.4c0,20.4-16.9,36.7-36.3,36.7L473.4,427.3L473.4,427.3z"/>
		<path class="st1" d="M551.6,426.3c-2.1,0-3.2-1.1-3.2-3.1V308.1c0-2.1,1.1-3.1,3.2-3.1h55.8c20.9,0,36.7,15.3,36.7,35.7v12
			c0,7.5-5.4,16.7-9,19.6c-0.1,0.1-0.2,0.2-0.2,0.2c0.1,0.1,0.2,0.2,0.3,0.2c3.7,3.6,7.2,12.7,7.2,20.3l0.1,30.2
			c0,2-1.1,3.1-3.2,3.1H611c-2.1,0-3.2-1.1-3.2-3.1l-0.1-31.1c0-4.4-3.1-7.2-9.1-7.2H588c-3.3,0-6.6-2.7-6.6-2.7s1.7,3.1,1.7,5.2
			l0.1,35.9c0,2-1.1,3.1-3.2,3.1L551.6,426.3L551.6,426.3z M581.3,332.7c0,0,1.7,3.1,1.7,5.2v17.2c0,2.1-1.7,4.8-1.7,4.8
			s3.2-2.5,6.6-2.5h12c6.1,0,9.1-2.8,9.1-7.2v-7.6c0-4.4-3.1-7.2-9.1-7.2h-12C584.6,335.4,581.3,332.7,581.3,332.7L581.3,332.7z"/>
		<path class="st1" d="M654.6,390.6v-50c0-20.4,16.9-37.1,36.2-37.1h23.4c19.2,0,36.2,16.7,36.2,37.1v50c0,20.4-16.9,36.7-36.2,36.7
			h-23.4C671.5,427.4,654.6,411.1,654.6,390.6z M698.8,397.3h7.2c6.1,0,9.6-1.7,9.6-9.9v-43.3c0-8.5-3.5-10.1-9.6-10.1h-7.2
			c-6.1,0-9.6,1.7-9.6,10.1v43.2C689.3,395.6,692.8,397.3,698.8,397.3z"/>
		<path class="st1" d="M783.9,426.3c-2.1,0-3.2-1.1-3.2-3.1v-85.8c0-2.1,1.7-4.8,1.7-4.8s-3.7,2.9-7,2.9H758c-2.1,0-3.2-1.1-3.2-3.1
			v-24.1c0-2.1,1.1-3.1,3.2-3.1h80c2.1,0,3.2,1.1,3.2,3.1v24.1c0,2.1-1.1,3.1-3.2,3.1h-17.3c-3.3,0-7-2.9-7-2.9s1.7,2.7,1.7,4.8
			v85.8c0,2.1-1.1,3.1-3.2,3.1L783.9,426.3L783.9,426.3z"/>
		<path class="st1" d="M850.9,426.3c-2.1,0-3.2-1.1-3.2-3.1V308.1c0-2.1,1.1-3.1,3.2-3.1h73.7c1.6,0,2.5,0.9,2.5,2.5V333
			c0,1.6-0.9,2.5-2.5,2.5h-37.3c-3.3,0-6.6-2.7-6.6-2.7s1.7,3.1,1.7,5.2v10c0,2.1-1.7,4.8-1.7,4.8s3.2-2.5,6.6-2.5l32.8,0.1
			c1.6,0,2.5,0.9,2.5,2.5v21.8c0,1.6-0.9,2.5-2.5,2.5h-32.8c-3.3,0-6.6-2.7-6.6-2.7s1.7,3.1,1.7,5.2V394c0,2.1-1.7,5.2-1.7,5.2
			s3.2-2.7,6.6-2.7h40.1c1.6,0,2.5,0.9,2.5,2.5v25c0,1.6-0.9,2.5-2.5,2.5L850.9,426.3L850.9,426.3z"/>
		<path class="st1" d="M975.1,427.8c-21.1,0-37.8-16.7-37.8-37.2v-5.9c0-2.1,1.1-3.1,3.2-3.1h28.4c2.1,0,3.2,1.1,3.2,3.1v2.7
			c-0.1,8.3,3.5,9.9,9.6,9.9h7.8c5,0,9.1-1.9,9.1-9.9v-1.2c0-4.3-2.9-6.3-7-7.4l-32.7-9.1c-14.4-4-21.5-17.3-21.5-27.8v-1.7
			c0-20,17-36.5,37.7-36.5h19.4c22.6,0,36.3,16.6,36.3,37.2v1.4c0,2.1-1.1,3.1-3.2,3.1h-28.4c-2.1,0-3.2-1.1-3.2-3.1V339
			c0-3.2-3.3-5-7.1-5h-12c-3.3,0-4.9,2.9-4.9,5.6v0.4c0,3.9,2.1,6.3,6,7.4l32.6,9.1c16.5,5.5,22.4,12.7,22.4,29.1v5.7
			c0,20.7-17.3,36.7-38.4,36.7L975.1,427.8L975.1,427.8z"/>
		<path class="st1" d="M1048.4,426.3c-1.6,0-2.5-0.9-2.5-2.5V307.4c0-1.6,0.9-2.5,2.5-2.5h29.7c1.6,0,2.5,0.9,2.5,2.5v24.5
			c0,3.4-1.3,10.1-1.3,10.1s3.6-6.3,5.9-9.1l22.2-26.5c0.9-1,1.7-1.4,3.1-1.4h36.8c2.1,0,2.9,1.4,1.4,3l-41.1,47
			c-1.4,1.7-4.9,2.9-4.9,2.9s3.2,1.3,4.2,2.9l41.8,62.5c1.1,1.7,0.3,2.9-1.7,2.9h-32.5c-1.3,0-2.2-0.5-3-1.6l-27.4-41
			c-0.6-0.8-0.2-4.2-0.2-4.2s-1.4,3.5-2.1,4.3l-0.6,0.6c-0.6,0.7-4.3,0.1-4.3,0.1s3.6,1.1,3.6,2.6v36.7c0,1.6-0.9,2.5-2.5,2.5
			L1048.4,426.3L1048.4,426.3z"/>
	</g>
</g>
<g>
	<g>
		<path class="st1" d="M297,582.1c-2.4,0-3.6-1.3-3.6-3.6V481c0-2.5,1.9-5.5,1.9-5.5s-4.2,3.2-8,3.2h-19.7c-2.4,0-3.6-1.3-3.6-3.6
			v-27.4c0-2.3,1.3-3.6,3.6-3.6h91c2.4,0,3.6,1.3,3.6,3.6v27.5c0,2.3-1.3,3.6-3.6,3.6h-19.7c-3.8,0-8-3.2-8-3.2s1.9,3,1.9,5.5v97.5
			c0,2.3-1.3,3.6-3.6,3.6L297,582.1L297,582.1z"/>
		<path class="st1" d="M412.5,582.1c-2.4,0-3.6-1.3-3.6-3.6v-41.6c0-1.5,1.1-3.5,1.1-3.5s-2.2-2.1-3.1-3.7l-41.2-81.3
			c-1.3-2.5-0.2-4.2,2.7-4.2h34c2.1,0,3.4,0.8,4.2,2.6l19.4,43.1c1.4,3.2,2.6,10.8,2.6,10.8s1.1-7.5,2.5-10.6l19.5-43.3
			c0.8-1.8,2.2-2.6,4.2-2.6h33.9c2.8,0,3.9,1.7,2.7,4.2l-41.2,81.4c-0.8,1.6-3,3.6-3,3.6s1.1,2,1.1,3.4v41.6c0,2.3-1.3,3.6-3.6,3.6
			L412.5,582.1L412.5,582.1z"/>
		<path class="st1" d="M497.8,582.1c-2.4,0-3.6-1.3-3.6-3.6V447.8c0-2.3,1.3-3.6,3.6-3.6H560c23.8,0,43,17.4,43,40.6v11.9
			c0,23.3-19.2,40.5-43,40.5h-19.2c-3.7,0-9-3.1-9-3.1s2.1,4.9,2.1,7.3v37.1c0,2.3-1.3,3.6-3.6,3.6L497.8,582.1L497.8,582.1z
			 M539.1,504.2h13.7c6.9,0,10.4-3.2,10.4-8.2v-9.1c0-5-3.5-8.2-10.4-8.2h-13.7c-3.8,0-7.4-3.1-7.4-3.1s2,3.5,2,5.9v19.7
			c0,2.5-2,5.9-2,5.9S535.3,504.2,539.1,504.2z"/>
		<path class="st1" d="M616.1,582.1c-2.4,0-3.6-1.3-3.6-3.6V447.8c0-2.3,1.3-3.6,3.6-3.6h83.8c1.8,0,2.9,1,2.9,2.8v29
			c0,1.8-1,2.8-2.9,2.8h-42.4c-3.8,0-7.4-3.1-7.4-3.1s2,3.5,2,5.9V493c0,2.5-2,5.5-2,5.5s3.6-2.9,7.4-2.9l37.2,0.1
			c1.8,0,2.9,1,2.9,2.8v24.7c0,1.8-1,2.8-2.9,2.8h-37.2c-3.8,0-7.4-3.1-7.4-3.1s2,3.5,2,5.9V545c0,2.5-2,5.9-2,5.9s3.6-3.1,7.4-3.1
			H703c1.8,0,2.9,1,2.9,2.8v28.6c0,1.8-1,2.8-2.9,2.8L616.1,582.1L616.1,582.1z"/>
		<path class="st1" d="M721.1,582.1c-1.8,0-2.9-1-2.9-2.8V447.8c0-2.3,1.3-3.6,3.6-3.6h83.7c1.8,0,2.9,1,2.9,2.8v29
			c0,1.8-1,2.8-2.9,2.8h-42.4c-3.8,0-7.4-3.1-7.4-3.1s2,3.5,2,5.9V493c0,2.5-2,5.5-2,5.5s3.6-2.9,7.4-2.9l37.1,0.1
			c1.8,0,2.9,1,2.9,2.8v24.7c0,1.8-1,2.8-2.9,2.8h-37.1c-3.8,0-7.4-3.1-7.4-3.1s2,3.5,2,5.9v50.4c0,1.8-1,2.8-2.9,2.8L721.1,582.1
			L721.1,582.1z"/>
		<path class="st1" d="M801.6,582.1c-2.1,0-2.9-1.3-2.2-3.2l42.9-132.4c0.5-1.5,1.6-2.2,3.2-2.2h45.7c1.6,0,2.7,0.7,3.2,2.2
			l42.9,132.4c0.6,2-0.2,3.2-2.2,3.2h-35.5c-1.7,0-2.9-0.6-3.2-2.2l-5.1-20.1c-0.7-2.7,0-5.6,0-7.1c-1.4,0.5-4.7,1.8-7.9,1.8h-30.2
			c-3.2,0-6.5-1.3-7.9-1.8c0,1.4,0.7,4.4,0,7.1l-5.1,20.1c-0.4,1.6-1.6,2.2-3.2,2.2H801.6L801.6,582.1z M851.9,525.9
			c1.6-0.5,5.4-1.8,8.8-1.8H876c3.5,0,7.2,1.3,8.8,1.8c-1-1.3-3.2-4.3-4.2-7.3l-9.3-30.4c-1-3.2-0.3-8.3,1-10.3
			c-0.6,0.5-2.5,2-2.9,2h-1.9c-0.5,0-2.5-1.4-2.9-2c1.3,2,2,7,1,10.3l-9.3,30.4C855.2,521.7,852.8,524.6,851.9,525.9L851.9,525.9z"
			/>
		<path class="st1" d="M977.4,583.3c-21.9,0-41.2-18.4-41.2-41.7v-56.8c0-23.2,19.2-42.2,41.2-42.2h23.9c21.9,0,41,18.9,41,42.2v6.7
			c0,1.8-1,2.8-2.9,2.8h-33.8c-1.8,0-2.9-1-2.9-2.8v-2.9c0-9.6-4-11.5-10.9-11.5h-5.3c-6.9,0-10.8,1.9-10.8,11.5v49.2
			c0,9.4,4,11.3,10.8,11.3h5.4c6.9,0,10.8-1.8,10.8-11.3v-2.5c0-1.8,1-2.8,2.9-2.8h33.8c1.8,0,2.9,1,2.9,2.8v6.3
			c0,23.2-19.1,41.7-41,41.7H977.4L977.4,583.3z"/>
		<path class="st1" d="M1061.2,582.1c-2.4,0-3.6-1.3-3.6-3.6V447.8c0-2.3,1.3-3.6,3.6-3.6h83.8c1.8,0,2.9,1,2.9,2.8v29
			c0,1.8-1,2.8-2.9,2.8h-42.4c-3.8,0-7.4-3.1-7.4-3.1s2,3.5,2,5.9V493c0,2.5-2,5.5-2,5.5s3.6-2.9,7.4-2.9l37.2,0.1
			c1.8,0,2.9,1,2.9,2.8v24.7c0,1.8-1,2.8-2.9,2.8h-37.2c-3.8,0-7.4-3.1-7.4-3.1s2,3.5,2,5.9V545c0,2.5-2,5.9-2,5.9s3.6-3.1,7.4-3.1
			h45.6c1.8,0,2.9,1,2.9,2.8v28.6c0,1.8-1,2.8-2.9,2.8L1061.2,582.1L1061.2,582.1z"/>
	</g>
</g>
<g>
	<g>
		<path class="st1" d="M291.5,683c-1.3,0-2.1-0.6-2.5-1.8l-25.2-79.3c-0.5-1.5,0.2-2.5,1.8-2.5h20.7c1.3,0,2.1,0.6,2.4,1.8
			l11.2,46.2c0.6,2.4,0.9,7.8,1,9.1c0.2-1.3,0.4-6.7,1-9.1l11.7-46.2c0.3-1.3,1.1-1.8,2.5-1.8h18.8c1.3,0,2.1,0.6,2.5,1.8l11.7,46.4
			c0.6,2.3,0.9,7.8,1,9c0.2-1.2,0.4-6.7,1-8.9l11.2-46.3c0.3-1.3,1.1-1.8,2.4-1.8h20.7c1.6,0,2.3,1,1.8,2.5l-25.1,79.3
			c-0.4,1.2-1.2,1.8-2.5,1.8h-17.3c-1.3,0-2.1-0.6-2.5-1.8l-13.1-42.8c-0.6-2.1-1-6.7-1-7.8c-0.1,1-0.4,5.6-1,7.8l-13.1,42.8
			c-0.4,1.2-1.2,1.8-2.5,1.8L291.5,683L291.5,683z"/>
		<path class="st1" d="M389.1,681.4v-80.2c0-1,0.9-1.7,1.9-1.7h20c1,0,1.9,0.8,1.9,1.7v80.2c0,1-0.9,1.7-1.9,1.7h-20
			C389.9,683,389.1,682.3,389.1,681.4z"/>
		<path class="st1" d="M437.3,683c-1.4,0-2.2-0.7-2.2-2.1v-59.1c0-1.5,1.2-3.3,1.2-3.3s-2.5,2-4.8,2h-12c-1.4,0-2.2-0.7-2.2-2.1
			v-16.6c0-1.4,0.8-2.1,2.2-2.1h55.2c1.4,0,2.2,0.7,2.2,2.1v16.6c0,1.4-0.8,2.1-2.2,2.1h-12c-2.3,0-4.8-2-4.8-2s1.2,1.8,1.2,3.3
			v59.1c0,1.4-0.8,2.1-2.2,2.1H437.3L437.3,683z"/>
		<path class="st1" d="M483.1,683c-1.1,0-1.7-0.6-1.7-1.7v-80.2c0-1.1,0.6-1.7,1.7-1.7h20.5c1.1,0,1.7,0.6,1.7,1.7V629
			c0,1.5-1.2,3.3-1.2,3.3s2.2-1.7,4.5-1.7h12.7c2.3,0,4.5,1.7,4.5,1.7s-1.2-1.8-1.2-3.3v-27.9c0-1.1,0.6-1.7,1.7-1.7h20.4
			c1.1,0,1.7,0.6,1.7,1.7v80.2c0,1.1-0.6,1.7-1.7,1.7h-20.5c-1.1,0-1.7-0.6-1.7-1.7v-30.6c0-1.5,1.2-3.6,1.2-3.6s-2.2,1.9-4.5,1.9
			h-12.7c-2.2,0-4.5-1.9-4.5-1.9s1.2,2.1,1.2,3.6v30.6c0,1.1-0.6,1.7-1.7,1.7H483.1L483.1,683z"/>
		<path class="st1" d="M587.5,683c-1.3,0-1.7-0.8-1.3-2l26-80.3c0.3-1,1-1.3,2-1.3h27.7c1,0,1.7,0.4,2,1.3l25.9,80.3
			c0.4,1.2-0.1,2-1.3,2H647c-1,0-1.7-0.4-2-1.3l-3.1-12.2c-0.4-1.7,0-3.4,0-4.3c-0.9,0.3-2.9,1.1-4.8,1.1h-18.3
			c-2,0-3.9-0.8-4.8-1.1c0,0.9,0.4,2.6,0,4.3l-3.1,12.2c-0.2,1-1,1.3-2,1.3H587.5L587.5,683z M618,649c1-0.3,3.2-1.1,5.3-1.1h9.3
			c2.1,0,4.4,0.8,5.3,1.1c-0.6-0.8-2-2.5-2.5-4.4l-5.7-18.4c-0.6-2-0.2-5.1,0.6-6.3c-0.3,0.3-1.5,1.2-1.8,1.2h-1.2
			c-0.3,0-1.5-0.9-1.8-1.2c0.8,1.2,1.2,4.3,0.6,6.3l-5.7,18.4C620,646.4,618.6,648.2,618,649L618,649z"/>
		<path class="st1" d="M728.8,684.1c-14.5,0-26-11.5-26-25.7v-4c0-1.4,0.8-2.1,2.2-2.1h19.5c1.4,0,2.2,0.7,2.2,2.1v1.8
			c-0.1,5.7,2.5,6.8,6.6,6.8h5.4c3.4,0,6.3-1.3,6.3-6.8v-0.8c0-2.9-2.1-4.4-4.8-5.1l-22.6-6.3c-10-2.8-14.8-11.9-14.8-19.2v-1.2
			c0-13.8,11.7-25.2,26-25.2h13.4c15.6,0,25,11.4,25,25.7v1c0,1.4-0.8,2.1-2.2,2.1h-19.6c-1.4,0-2.2-0.7-2.2-2.1V623
			c0-2.1-2.3-3.5-4.9-3.5H730c-2.3,0-3.3,2-3.3,3.9v0.3c0,2.7,1.5,4.4,4.1,5.1l22.5,6.3c11.3,3.8,15.4,8.7,15.4,20v3.9
			c0,14.3-12,25.3-26.4,25.3L728.8,684.1L728.8,684.1z"/>
		<path class="st1" d="M779.8,683c-1.4,0-2.2-0.7-2.2-2.1v-79.3c0-1.4,0.8-2.1,2.2-2.1h37.7c14.4,0,26,10.5,26,24.6v7.2
			c0,14.1-11.6,24.5-26,24.5h-11.7c-2.2,0-5.5-1.9-5.5-1.9s1.3,2.9,1.3,4.4v22.5c0,1.4-0.8,2.1-2.2,2.1L779.8,683L779.8,683z
			 M804.9,635.8h8.3c4.2,0,6.3-1.9,6.3-4.9v-5.5c0-3-2.1-4.9-6.3-4.9h-8.3c-2.3,0-4.5-1.9-4.5-1.9s1.2,2.1,1.2,3.6v12
			c0,1.5-1.2,3.6-1.2,3.6S802.6,635.8,804.9,635.8z"/>
		<path class="st1" d="M851.5,683c-1.4,0-2.2-0.7-2.2-2.1v-79.3c0-1.4,0.8-2.1,2.2-2.1h50.8c1.1,0,1.7,0.6,1.7,1.7v17.6
			c0,1.1-0.6,1.7-1.7,1.7h-25.7c-2.3,0-4.5-1.9-4.5-1.9s1.2,2.1,1.2,3.6v6.9c0,1.5-1.2,3.3-1.2,3.3s2.2-1.7,4.5-1.7l22.6,0.1
			c1.1,0,1.7,0.6,1.7,1.7v15c0,1.1-0.6,1.7-1.7,1.7h-22.6c-2.3,0-4.5-1.9-4.5-1.9s1.2,2.1,1.2,3.6v9.8c0,1.5-1.2,3.6-1.2,3.6
			s2.2-1.9,4.5-1.9h27.6c1.1,0,1.7,0.6,1.7,1.7V681c0,1.1-0.6,1.7-1.7,1.7L851.5,683L851.5,683z"/>
		<path class="st1" d="M938.1,683.8c-13.3,0-24.9-11.2-24.9-25.3V624c0-14.1,11.6-25.6,24.9-25.6h14.5c13.3,0,24.9,11.5,24.9,25.6
			v4.1c0,1.1-0.6,1.7-1.7,1.7h-20.5c-1.1,0-1.7-0.6-1.7-1.7v-1.7c0-5.9-2.5-7-6.7-7h-3.2c-4.2,0-6.6,1.1-6.6,7v29.8
			c0,5.7,2.4,6.8,6.6,6.8h3.2c4.2,0,6.6-1.1,6.6-6.8v-1.5c0-1.1,0.6-1.7,1.7-1.7h20.5c1.1,0,1.7,0.6,1.7,1.7v3.9
			c0,14.1-11.6,25.3-24.9,25.3L938.1,683.8L938.1,683.8z"/>
		<path class="st1" d="M986.7,681.4v-80.2c0-1,0.9-1.7,1.9-1.7h20c1,0,1.9,0.8,1.9,1.7v80.2c0,1-0.9,1.7-1.9,1.7h-20
			C987.5,683,986.7,682.3,986.7,681.4z"/>
		<path class="st1" d="M1015.9,683c-1.3,0-1.7-0.8-1.3-2l26-80.3c0.3-1,1-1.3,2-1.3h27.7c0.9,0,1.7,0.4,2,1.3l26,80.3
			c0.4,1.2-0.1,2-1.3,2h-21.7c-0.9,0-1.7-0.4-2-1.3l-3.1-12.2c-0.4-1.7,0-3.4,0-4.3c-0.9,0.3-2.9,1.1-4.8,1.1H1047
			c-2,0-3.9-0.8-4.8-1.1c0,0.9,0.4,2.6,0,4.3l-3.1,12.2c-0.2,1-1,1.3-2,1.3H1015.9L1015.9,683z M1046.3,649c1-0.3,3.2-1.1,5.3-1.1
			h9.3c2.1,0,4.4,0.8,5.3,1.1c-0.6-0.8-2-2.5-2.5-4.4l-5.7-18.4c-0.6-2-0.2-5.1,0.6-6.3c-0.3,0.3-1.5,1.2-1.8,1.2h-1.2
			c-0.3,0-1.5-0.9-1.8-1.2c0.8,1.2,1.2,4.3,0.6,6.3l-5.7,18.4C1048.3,646.4,1046.9,648.2,1046.3,649L1046.3,649z"/>
		<path class="st1" d="M1104.4,683c-1.4,0-2.2-0.7-2.2-2.1v-79.3c0-1.4,0.8-2.1,2.2-2.1h19.5c1.4,0,2.3,0.7,2.3,2.1v57.9
			c0,1.3-1.3,4-1.3,4s3-1.5,4.6-1.5h19.2c1.4,0,2.2,0.7,2.2,2.1v16.8c0,1.4-0.8,2.1-2.2,2.1H1104.4L1104.4,683z"/>
	</g>
</g>
<g>
	<path class="st2" d="M275.3,935.2c-4,0-6.2-2.1-6.2-6V705.9c0-4,2.1-6,6.2-6h60.8c6.3,0,8.7,3.3,10.5,7.4l43.8,99.1
		c1.8,4,1.1,22.8,3.1,29.2c1.8-6.4,1.3-25.2,3.1-29.2l43.7-99.2c1.7-4,4.2-7.4,10.5-7.4h60.9c4,0,6.2,2.1,6.2,6v223.3
		c0,4-2.1,6-6.2,6h-55.1c-4,0-6.2-2.1-6.2-6v-98.3c0-7,7.1-23.9,3.8-33.4c0,0-5.2,25.9-7,30.1l-33.6,80.2c-1.1,2.5-2.7,3.8-5.5,3.8
		H379c-2.8,0-4.4-1.3-5.5-3.8l-33.6-80.1c-1.7-4.2-7-30.1-7-30.1c-3.3,9.5,3.8,26.4,3.8,33.5v98.3c0,4-2.1,6-6.2,6L275.3,935.2
		L275.3,935.2z"/>
	<path class="st2" d="M545.5,866.2v-97.1c0-39.7,32.9-72,70.2-72h45.4c37.4,0,70.2,32.4,70.2,72v97.1c0,39.7-32.9,71.2-70.2,71.2
		h-45.4C578.3,937.3,545.5,905.8,545.5,866.2z M631.4,879h14c11.7,0,18.5-3.2,18.5-19.3v-83.9c0-16.4-6.8-19.6-18.5-19.6h-14
		c-11.7,0-18.5,3.2-18.5,19.6v84C612.9,875.8,619.7,879,631.4,879z"/>
	<path class="st2" d="M754.8,866.2v-97.1c0-39.7,32.9-72,70.2-72h45.4c37.4,0,70.2,32.4,70.2,72v97.1c0,39.7-32.9,71.2-70.2,71.2
		H825C787.7,937.3,754.8,905.8,754.8,866.2z M840.7,879h14c11.7,0,18.5-3.2,18.5-19.3v-83.9c0-16.4-6.8-19.6-18.5-19.6h-14
		c-11.7,0-18.5,3.2-18.5,19.6v84C822.2,875.8,829,879,840.7,879z"/>
	<path class="st2" d="M973.6,935.2c-3.2,0-4.8-1.7-4.8-4.8V704.6c0-3.1,1.7-4.8,4.8-4.8h104c40.4,0,73.3,32.2,73.3,71.9v91.4
		c0,39.7-32.9,72-73.3,72L973.6,935.2L973.6,935.2z M1032.6,881.8c0,0,6.3-4.8,12.7-4.8h20.3c11.7,0,17.7-5.4,17.7-13.9v-90.2
		c0-8.6-5.9-13.9-17.7-13.9h-20.3c-6.5,0-12.7-5.2-12.7-5.2s3.4,5.9,3.4,10.1v108.6C1036,876.6,1032.6,881.8,1032.6,881.8
		L1032.6,881.8z"/>
</g>
</svg>
